# This file uses centimeters as units for non-parametric coordinates.

mtllib cakecliff.mtl
g default
v -1.428376 2.925004 1.825679
v -1.428376 0.115702 1.825679
v -1.232645 2.925004 -4.345397
v -1.428376 0.115702 -4.345397
v -1.428376 1.520353 1.825679
v -1.428376 2.925004 -1.259859
v -1.163256 0.115702 -1.259859
v -1.428376 1.520353 -4.345397
v -1.428376 1.520353 -1.259859
v -1.428376 2.222678 1.825679
v -1.428376 0.818028 1.825679
v -1.215735 2.925004 0.282910
v -1.245073 2.925004 -2.802629
v -1.428376 0.115702 0.282910
v -1.428376 0.115702 -2.802629
v -1.428376 2.222678 -4.345397
v -1.428376 0.818028 -4.345397
v -1.428376 1.520353 0.282910
v -1.242388 0.818028 -1.259859
v -1.245073 1.520353 -2.802629
v -1.428376 2.222678 -1.259859
v -1.428376 0.818028 0.282910
v -1.428376 0.818028 -2.802629
v -1.245073 2.222678 -2.802629
v -1.312721 2.222678 0.282910
v -1.428376 2.925004 7.988977
v -1.428376 0.115702 7.988977
v -1.428376 2.925004 1.817901
v -1.428376 0.115702 1.817901
v -1.428376 1.520353 7.988977
v -1.428376 2.925004 4.903440
v -1.618134 0.115702 4.903440
v -1.428376 1.520353 1.817901
v -1.428376 1.520353 4.903440
v -1.428376 2.222678 7.988977
v -1.428376 0.818028 7.988977
v -1.215735 2.925004 6.446208
v -1.245073 2.925004 3.360671
v -1.428376 0.115702 6.446208
v -1.428376 0.115702 3.360671
v -1.428376 2.222678 1.817901
v -1.428376 0.818028 1.817901
v -1.428376 1.520353 6.446208
v -1.661259 0.818028 4.903440
v -1.245073 1.520353 3.360671
v -1.428376 2.222678 4.903440
v -1.428376 0.818028 6.446208
v -1.428376 0.818028 3.360671
v -1.245073 2.222678 3.360671
v -1.312721 2.222678 6.446208
v -1.225743 2.925004 -4.334468
v -1.388812 0.115702 -4.334468
v -1.428376 2.925004 -10.505544
v -1.428376 0.115702 -10.505544
v -1.428376 1.520353 -4.334468
v -1.428376 2.925004 -7.420006
v -1.163256 0.115702 -7.420006
v -1.428376 1.520353 -10.505544
v -1.428376 1.520353 -7.420006
v -1.428376 2.222678 -4.334468
v -1.428376 0.818028 -4.334468
v -1.215735 2.925004 -5.877237
v -1.245073 2.925004 -8.962775
v -1.621280 0.115702 -5.877237
v -1.428376 0.115702 -8.962775
v -1.428376 2.222678 -10.505544
v -1.428376 0.818028 -10.505544
v -1.539395 1.520353 -5.877237
v -1.242388 0.818028 -7.420006
v -1.245073 1.520353 -8.962775
v -1.428376 2.222678 -7.420006
v -1.682292 0.818028 -5.877237
v -1.428376 0.818028 -8.962775
v -1.245073 2.222678 -8.962775
v -1.312721 2.222678 -5.877237
vt 0.000000 0.000000
vt 0.455237 0.000000
vt 0.000000 1.000000
vt 0.455237 1.000000
vt 0.227618 0.500000
vt 0.227618 0.000000
vt 0.455237 0.500000
vt 0.227618 1.000000
vt 0.000000 0.500000
vt 0.341428 0.250000
vt 0.341428 0.750000
vt 0.113809 0.750000
vt 0.113809 0.250000
vt 0.341428 0.000000
vt 0.455237 0.250000
vt 0.341428 0.500000
vt 0.227618 0.250000
vt 0.455237 0.750000
vt 0.341428 1.000000
vt 0.227618 0.750000
vt 0.113809 1.000000
vt 0.000000 0.750000
vt 0.113809 0.500000
vt 0.000000 0.250000
vt 0.113809 0.000000
vt 0.341428 0.000000
vt 0.455237 0.000000
vt 0.455237 0.250000
vt 0.341428 0.250000
vt 0.455237 0.500000
vt 0.341428 0.500000
vt 0.227618 0.500000
vt 0.227618 0.250000
vt 0.227618 0.000000
vt 0.455237 0.750000
vt 0.455237 1.000000
vt 0.341428 1.000000
vt 0.341428 0.750000
vt 0.227618 1.000000
vt 0.227618 0.750000
vt 0.113809 1.000000
vt 0.000000 1.000000
vt 0.000000 0.750000
vt 0.113809 0.750000
vt 0.000000 0.500000
vt 0.113809 0.500000
vt 0.000000 0.250000
vt 0.000000 0.000000
vt 0.113809 0.000000
vt 0.113809 0.250000
vt 0.341428 0.000000
vt 0.455237 0.000000
vt 0.455237 0.250000
vt 0.341428 0.250000
vt 0.455237 0.500000
vt 0.341428 0.500000
vt 0.227618 0.500000
vt 0.227618 0.250000
vt 0.227618 0.000000
vt 0.455237 0.750000
vt 0.455237 1.000000
vt 0.341428 1.000000
vt 0.341428 0.750000
vt 0.227618 1.000000
vt 0.227618 0.750000
vt 0.113809 1.000000
vt 0.000000 1.000000
vt 0.000000 0.750000
vt 0.113809 0.750000
vt 0.000000 0.500000
vt 0.113809 0.500000
vt 0.000000 0.250000
vt 0.000000 0.000000
vt 0.113809 0.000000
vt 0.113809 0.250000
vn 1.000000 0.000000 0.000000
vn 1.000000 0.000000 0.000000
vn 0.996982 0.027913 0.072438
vn 0.997591 0.046822 0.051187
vn 0.998417 0.056246 0.000000
vn 0.997999 0.061472 0.014793
vn 0.999305 0.012795 0.035022
vn 0.999854 -0.008281 0.014980
vn 0.998983 -0.041043 0.018684
vn 0.996982 0.027913 -0.072438
vn 1.000000 0.000000 0.000000
vn 0.997466 -0.064752 -0.029478
vn 0.998525 -0.017975 -0.051237
vn 0.993959 -0.064752 -0.088619
vn 0.999376 -0.031989 -0.015000
vn 0.993842 -0.069101 -0.086625
vn 0.988944 -0.137804 -0.054767
vn 0.997087 -0.069327 0.031803
vn 0.999271 -0.034704 0.015920
vn 0.999386 -0.034485 0.006259
vn 0.999010 -0.037833 0.023400
vn 0.997625 -0.068882 -0.000000
vn 0.992052 -0.068498 0.105553
vn 0.994596 -0.075296 0.071485
vn 0.997147 -0.075489 -0.000000
vn 1.000000 0.000000 0.000000
vn 1.000000 0.000000 0.000000
vn 0.997570 0.015239 -0.067988
vn 0.998053 -0.033328 -0.052714
vn 0.999529 0.030687 0.000000
vn 0.995130 -0.097610 0.013726
vn 0.990532 -0.133005 0.033995
vn 0.996460 -0.081988 -0.018611
vn 0.998983 -0.041043 0.018684
vn 0.997570 0.015239 0.067988
vn 1.000000 0.000000 0.000000
vn 0.997466 -0.064752 -0.029478
vn 0.994009 -0.096216 0.051861
vn 0.993959 -0.064752 -0.088619
vn 0.994416 -0.104059 0.017588
vn 0.993016 0.000000 -0.117984
vn 0.993016 0.000000 -0.117984
vn 1.000000 0.000000 0.000000
vn 1.000000 0.000000 0.000000
vn 0.999386 -0.034485 0.006259
vn 0.999010 -0.037833 0.023400
vn 0.997625 -0.068883 0.000000
vn 0.992052 -0.068498 0.105553
vn 0.994596 -0.075296 0.071485
vn 0.997147 -0.075489 0.000000
vn 0.990510 -0.015039 -0.136617
vn 0.985341 0.070553 -0.155323
vn 0.994393 0.084993 0.062920
vn 0.998627 0.024393 0.046358
vn 0.994659 0.077279 0.068422
vn 0.995854 0.046428 0.078226
vn 0.996800 -0.031988 0.073252
vn 0.995069 -0.098071 0.014834
vn 0.989801 -0.130199 -0.057814
vn 0.996982 0.027913 -0.072438
vn 1.000000 0.000000 0.000000
vn 0.997466 -0.064752 -0.029478
vn 0.998525 -0.017975 -0.051237
vn 0.993959 -0.064752 -0.088619
vn 0.999376 -0.031989 -0.015000
vn 0.993016 0.000000 -0.117984
vn 0.993016 0.000000 -0.117984
vn 1.000000 0.000000 -0.000000
vn 1.000000 0.000000 -0.000000
vn 0.999386 -0.034485 0.006259
vn 0.997828 -0.057326 0.032445
vn 0.989715 -0.139187 -0.033046
vn 0.977224 -0.208447 0.039799
vn 0.982715 -0.183971 0.020651
vn 0.988654 -0.149304 -0.016484
s 1
g polySurface1
usemtl initialShadingGroup
f 11/14/1 2/2/2 14/15/3 22/10/4
f 14/15/3 7/7/5 19/16/6 22/10/4
f 19/16/6 9/5/7 18/17/8 22/10/4
f 18/17/8 5/6/9 11/14/1 22/10/4
f 15/18/10 4/4/11 17/19/12 23/11/13
f 17/19/12 8/8/14 20/20/15 23/11/13
f 20/20/15 9/5/7 19/16/6 23/11/13
f 19/16/6 7/7/5 15/18/10 23/11/13
f 16/21/16 3/3/17 13/22/18 24/12/19
f 13/22/18 6/9/20 21/23/21 24/12/19
f 21/23/21 9/5/7 20/20/15 24/12/19
f 20/20/15 8/8/14 16/21/16 24/12/19
f 12/24/22 1/1/23 10/25/24 25/13/25
f 10/25/24 5/6/9 18/17/8 25/13/25
f 18/17/8 9/5/7 21/23/21 25/13/25
f 21/23/21 6/9/20 12/24/22 25/13/25
s 4
f 36/26/26 27/27/27 39/28/28 47/29/29
f 39/28/28 32/30/30 44/31/31 47/29/29
f 44/31/31 34/32/32 43/33/33 47/29/29
f 43/33/33 30/34/34 36/26/26 47/29/29
f 40/35/35 29/36/36 42/37/37 48/38/38
f 42/37/37 33/39/39 45/40/40 48/38/38
f 45/40/40 34/32/32 44/31/31 48/38/38
f 44/31/31 32/30/30 40/35/35 48/38/38
f 41/41/41 28/42/42 38/43/43 49/44/44
f 38/43/43 31/45/45 46/46/46 49/44/44
f 46/46/46 34/32/32 45/40/40 49/44/44
f 45/40/40 33/39/39 41/41/41 49/44/44
f 37/47/47 26/48/48 35/49/49 50/50/50
f 35/49/49 30/34/34 43/33/33 50/50/50
f 43/33/33 34/32/32 46/46/46 50/50/50
f 46/46/46 31/45/45 37/47/47 50/50/50
s 7
f 61/51/51 52/52/52 64/53/53 72/54/54
f 64/53/53 57/55/55 69/56/56 72/54/54
f 69/56/56 59/57/57 68/58/58 72/54/54
f 68/58/58 55/59/59 61/51/51 72/54/54
f 65/60/60 54/61/61 67/62/62 73/63/63
f 67/62/62 58/64/64 70/65/65 73/63/63
f 70/65/65 59/57/57 69/56/56 73/63/63
f 69/56/56 57/55/55 65/60/60 73/63/63
f 66/66/66 53/67/67 63/68/68 74/69/69
f 63/68/68 56/70/70 71/71/71 74/69/69
f 71/71/71 59/57/57 70/65/65 74/69/69
f 70/65/65 58/64/64 66/66/66 74/69/69
f 62/72/72 51/73/73 60/74/74 75/75/75
f 60/74/74 55/59/59 68/58/58 75/75/75
f 68/58/58 59/57/57 71/71/71 75/75/75
f 71/71/71 56/70/70 62/72/72 75/75/75
g default
v -1.428376 2.925004 20.300703
v -1.428376 0.115702 20.300703
v -1.232645 2.925004 14.129627
v -1.428376 0.115702 14.129627
v -1.428376 1.520353 20.300703
v -1.428376 2.925004 17.215165
v -1.163256 0.115702 17.215165
v -1.428376 1.520353 14.129627
v -1.428376 1.520353 17.215165
v -1.428376 2.222678 20.300703
v -1.428376 0.818028 20.300703
v -1.215735 2.925004 18.757934
v -1.245073 2.925004 15.672396
v -1.428376 0.115702 18.757934
v -1.428376 0.115702 15.672396
v -1.428376 2.222678 14.129627
v -1.428376 0.818028 14.129627
v -1.428376 1.520353 18.757934
v -1.242388 0.818028 17.215165
v -1.245073 1.520353 15.672396
v -1.428376 2.222678 17.215165
v -1.428376 0.818028 18.757934
v -1.428376 0.818028 15.672396
v -1.245073 2.222678 15.672396
v -1.312721 2.222678 18.757934
v -1.428376 2.925004 26.464002
v -1.428376 0.115702 26.464002
v -1.428376 2.925004 20.292925
v -1.428376 0.115702 20.292925
v -1.428376 1.520353 26.464002
v -1.428376 2.925004 23.378464
v -1.618134 0.115702 23.378464
v -1.428376 1.520353 20.292925
v -1.428376 1.520353 23.378464
v -1.428376 2.222678 26.464002
v -1.428376 0.818028 26.464002
v -1.215735 2.925004 24.921233
v -1.245073 2.925004 21.835695
v -1.428376 0.115702 24.921233
v -1.428376 0.115702 21.835695
v -1.428376 2.222678 20.292925
v -1.428376 0.818028 20.292925
v -1.428376 1.520353 24.921233
v -1.661259 0.818028 23.378464
v -1.245073 1.520353 21.835695
v -1.428376 2.222678 23.378464
v -1.428376 0.818028 24.921233
v -1.428376 0.818028 21.835695
v -1.245073 2.222678 21.835695
v -1.312721 2.222678 24.921233
v -1.225743 2.925004 14.140556
v -1.388812 0.115702 14.140556
v -1.428376 2.925004 7.969480
v -1.428376 0.115702 7.969480
v -1.428376 1.520353 14.140556
v -1.428376 2.925004 11.055018
v -1.163256 0.115702 11.055018
v -1.428376 1.520353 7.969480
v -1.428376 1.520353 11.055018
v -1.428376 2.222678 14.140556
v -1.428376 0.818028 14.140556
v -1.215735 2.925004 12.597787
v -1.245073 2.925004 9.512249
v -1.621280 0.115702 12.597787
v -1.428376 0.115702 9.512249
v -1.428376 2.222678 7.969480
v -1.428376 0.818028 7.969480
v -1.539395 1.520353 12.597787
v -1.242388 0.818028 11.055018
v -1.245073 1.520353 9.512249
v -1.428376 2.222678 11.055018
v -1.682292 0.818028 12.597787
v -1.428376 0.818028 9.512249
v -1.245073 2.222678 9.512249
v -1.312721 2.222678 12.597787
vt 0.000000 0.000000
vt 0.455237 0.000000
vt 0.000000 1.000000
vt 0.455237 1.000000
vt 0.227618 0.500000
vt 0.227618 0.000000
vt 0.455237 0.500000
vt 0.227618 1.000000
vt 0.000000 0.500000
vt 0.341428 0.250000
vt 0.341428 0.750000
vt 0.113809 0.750000
vt 0.113809 0.250000
vt 0.341428 0.000000
vt 0.455237 0.250000
vt 0.341428 0.500000
vt 0.227618 0.250000
vt 0.455237 0.750000
vt 0.341428 1.000000
vt 0.227618 0.750000
vt 0.113809 1.000000
vt 0.000000 0.750000
vt 0.113809 0.500000
vt 0.000000 0.250000
vt 0.113809 0.000000
vt 0.341428 0.000000
vt 0.455237 0.000000
vt 0.455237 0.250000
vt 0.341428 0.250000
vt 0.455237 0.500000
vt 0.341428 0.500000
vt 0.227618 0.500000
vt 0.227618 0.250000
vt 0.227618 0.000000
vt 0.455237 0.750000
vt 0.455237 1.000000
vt 0.341428 1.000000
vt 0.341428 0.750000
vt 0.227618 1.000000
vt 0.227618 0.750000
vt 0.113809 1.000000
vt 0.000000 1.000000
vt 0.000000 0.750000
vt 0.113809 0.750000
vt 0.000000 0.500000
vt 0.113809 0.500000
vt 0.000000 0.250000
vt 0.000000 0.000000
vt 0.113809 0.000000
vt 0.113809 0.250000
vt 0.341428 0.000000
vt 0.455237 0.000000
vt 0.455237 0.250000
vt 0.341428 0.250000
vt 0.455237 0.500000
vt 0.341428 0.500000
vt 0.227618 0.500000
vt 0.227618 0.250000
vt 0.227618 0.000000
vt 0.455237 0.750000
vt 0.455237 1.000000
vt 0.341428 1.000000
vt 0.341428 0.750000
vt 0.227618 1.000000
vt 0.227618 0.750000
vt 0.113809 1.000000
vt 0.000000 1.000000
vt 0.000000 0.750000
vt 0.113809 0.750000
vt 0.000000 0.500000
vt 0.113809 0.500000
vt 0.000000 0.250000
vt 0.000000 0.000000
vt 0.113809 0.000000
vt 0.113809 0.250000
vn 1.000000 0.000000 0.000000
vn 1.000000 0.000000 0.000000
vn 0.996982 0.027913 0.072438
vn 0.997591 0.046822 0.051187
vn 0.998417 0.056246 0.000000
vn 0.997999 0.061472 0.014793
vn 0.999305 0.012795 0.035022
vn 0.999854 -0.008281 0.014980
vn 0.998983 -0.041043 0.018684
vn 0.996982 0.027913 -0.072438
vn 1.000000 0.000000 0.000000
vn 0.997466 -0.064752 -0.029478
vn 0.998525 -0.017975 -0.051237
vn 0.993959 -0.064752 -0.088619
vn 0.999376 -0.031989 -0.015000
vn 0.993842 -0.069101 -0.086625
vn 0.988944 -0.137804 -0.054767
vn 0.997087 -0.069327 0.031803
vn 0.999271 -0.034704 0.015920
vn 0.999386 -0.034485 0.006259
vn 0.999010 -0.037833 0.023400
vn 0.997625 -0.068882 -0.000000
vn 0.992052 -0.068498 0.105553
vn 0.994596 -0.075296 0.071485
vn 0.997147 -0.075489 -0.000000
vn 1.000000 0.000000 0.000000
vn 1.000000 0.000000 0.000000
vn 0.997570 0.015239 -0.067988
vn 0.998053 -0.033328 -0.052714
vn 0.999529 0.030687 0.000000
vn 0.995130 -0.097610 0.013726
vn 0.990532 -0.133005 0.033995
vn 0.996460 -0.081988 -0.018611
vn 0.998983 -0.041043 0.018684
vn 0.997570 0.015239 0.067988
vn 1.000000 0.000000 0.000000
vn 0.997466 -0.064752 -0.029478
vn 0.994009 -0.096216 0.051861
vn 0.993959 -0.064752 -0.088619
vn 0.994416 -0.104059 0.017588
vn 0.993016 0.000000 -0.117984
vn 0.993016 0.000000 -0.117984
vn 1.000000 0.000000 0.000000
vn 1.000000 0.000000 0.000000
vn 0.999386 -0.034485 0.006259
vn 0.999010 -0.037833 0.023400
vn 0.997625 -0.068883 0.000000
vn 0.992052 -0.068498 0.105553
vn 0.994596 -0.075296 0.071485
vn 0.997147 -0.075489 0.000000
vn 0.990510 -0.015039 -0.136617
vn 0.985341 0.070553 -0.155323
vn 0.994393 0.084993 0.062920
vn 0.998627 0.024393 0.046358
vn 0.994659 0.077279 0.068422
vn 0.995854 0.046428 0.078226
vn 0.996800 -0.031988 0.073252
vn 0.995069 -0.098071 0.014834
vn 0.989801 -0.130199 -0.057814
vn 0.996982 0.027913 -0.072438
vn 1.000000 0.000000 0.000000
vn 0.997466 -0.064752 -0.029478
vn 0.998525 -0.017975 -0.051237
vn 0.993959 -0.064752 -0.088619
vn 0.999376 -0.031989 -0.015000
vn 0.993016 0.000000 -0.117984
vn 0.993016 0.000000 -0.117984
vn 1.000000 0.000000 -0.000000
vn 1.000000 0.000000 -0.000000
vn 0.999386 -0.034485 0.006259
vn 0.997828 -0.057326 0.032445
vn 0.989715 -0.139187 -0.033046
vn 0.977224 -0.208447 0.039799
vn 0.982715 -0.183971 0.020651
vn 0.988654 -0.149304 -0.016484
s 1
g polySurface2
usemtl initialShadingGroup
f 86/89/76 77/77/77 89/90/78 97/85/79
f 89/90/78 82/82/80 94/91/81 97/85/79
f 94/91/81 84/80/82 93/92/83 97/85/79
f 93/92/83 80/81/84 86/89/76 97/85/79
f 90/93/85 79/79/86 92/94/87 98/86/88
f 92/94/87 83/83/89 95/95/90 98/86/88
f 95/95/90 84/80/82 94/91/81 98/86/88
f 94/91/81 82/82/80 90/93/85 98/86/88
f 91/96/91 78/78/92 88/97/93 99/87/94
f 88/97/93 81/84/95 96/98/96 99/87/94
f 96/98/96 84/80/82 95/95/90 99/87/94
f 95/95/90 83/83/89 91/96/91 99/87/94
f 87/99/97 76/76/98 85/100/99 100/88/100
f 85/100/99 80/81/84 93/92/83 100/88/100
f 93/92/83 84/80/82 96/98/96 100/88/100
f 96/98/96 81/84/95 87/99/97 100/88/100
s 4
f 111/101/101 102/102/102 114/103/103 122/104/104
f 114/103/103 107/105/105 119/106/106 122/104/104
f 119/106/106 109/107/107 118/108/108 122/104/104
f 118/108/108 105/109/109 111/101/101 122/104/104
f 115/110/110 104/111/111 117/112/112 123/113/113
f 117/112/112 108/114/114 120/115/115 123/113/113
f 120/115/115 109/107/107 119/106/106 123/113/113
f 119/106/106 107/105/105 115/110/110 123/113/113
f 116/116/116 103/117/117 113/118/118 124/119/119
f 113/118/118 106/120/120 121/121/121 124/119/119
f 121/121/121 109/107/107 120/115/115 124/119/119
f 120/115/115 108/114/114 116/116/116 124/119/119
f 112/122/122 101/123/123 110/124/124 125/125/125
f 110/124/124 105/109/109 118/108/108 125/125/125
f 118/108/108 109/107/107 121/121/121 125/125/125
f 121/121/121 106/120/120 112/122/122 125/125/125
s 7
f 136/126/126 127/127/127 139/128/128 147/129/129
f 139/128/128 132/130/130 144/131/131 147/129/129
f 144/131/131 134/132/132 143/133/133 147/129/129
f 143/133/133 130/134/134 136/126/126 147/129/129
f 140/135/135 129/136/136 142/137/137 148/138/138
f 142/137/137 133/139/139 145/140/140 148/138/138
f 145/140/140 134/132/132 144/131/131 148/138/138
f 144/131/131 132/130/130 140/135/135 148/138/138
f 141/141/141 128/142/142 138/143/143 149/144/144
f 138/143/143 131/145/145 146/146/146 149/144/144
f 146/146/146 134/132/132 145/140/140 149/144/144
f 145/140/140 133/139/139 141/141/141 149/144/144
f 137/147/147 126/148/148 135/149/149 150/150/150
f 135/149/149 130/134/134 143/133/133 150/150/150
f 143/133/133 134/132/132 146/146/146 150/150/150
f 146/146/146 131/145/145 137/147/147 150/150/150
